ffmpeg started on 2026-04-01 at 12:50:46
Report written to "D:\Convert\FFMetrics\reports\ssim_report-6.txt"
Log level: 32
Command line:
ffmpeg -hide_banner -nostdin -r 24000/1001 -i "F:\\Convert\\files\\[DC] Make Heroine ga Oosugiru - 07_Telegram_HEVC(293).mkv" -r 24000/1001 -i "F:\\Convert\\files\\[DC] Make Heroine ga Oosugiru - 07_Telegram.mp4" -lavfi "[0:v]settb=AVTB,setpts=PTS-STARTPTS,format=pix_fmts=yuv420p10le,fps=24000/1001,scale=1920:1080:flags=lanczos:param0=3:out_range=limited:out_color_matrix=bt709:out_chroma_loc=left,setsar=1/1,setdar=(1920/1080)*(1/1),colorspace=format=yuv420p10:range=tv:primaries=bt709:trc=bt709:space=bt709:fast=0[main];[1:v]settb=AVTB,setpts=PTS-STARTPTS,format=pix_fmts=yuv420p,fps=24000/1001,scale=1920:1080:flags=lanczos:param0=3:out_range=limited:out_color_matrix=bt709:out_chroma_loc=left,setsar=1/1,setdar=(1920/1080)*(1/1),colorspace=format=yuv420p:range=tv:primaries=bt709:trc=bt709:space=bt709:fast=0[ref];[main][ref]ssim=eof_action=endall:stats_file='D\\:/Convert/FFMetrics/logs/ssim_logfile-6.txt'" -f null -
Input #0, matroska,webm, from 'F:\Convert\files\[DC] Make Heroine ga Oosugiru - 07_Telegram_HEVC(293).mkv':
  Metadata:
    COMPATIBLE_BRANDS: isomiso2avc1mp41
    MAJOR_BRAND     : isom
    MINOR_VERSION   : 512
    ENCODER         : Lavf61.7.100
  Duration: 00:24:06.79, start: -0.021000, bitrate: 933 kb/s
  Stream #0:0: Video: hevc (Main 10), yuv420p10le(tv, bt709, progressive), 1920x1080 [SAR 1:1 DAR 16:9], 23.98 fps, 23.98 tbr, 1k tbn (default)
      Metadata:
        HANDLER_NAME    : VideoHandler
        VENDOR_ID       : [0][0][0][0]
        ENCODER         : Lavc61.19.100 libx265
        BPS             : 736545
        DURATION        : 00:24:06.569708333
        NUMBER_OF_FRAMES: 34683
        NUMBER_OF_BYTES : 133183058
        _STATISTICS_WRITING_APP: mkvpropedit v94.0 ('Initiate') 64-bit
        _STATISTICS_WRITING_DATE_UTC: 2026-03-31 06:57:31
        _STATISTICS_TAGS: BPS DURATION NUMBER_OF_FRAMES NUMBER_OF_BYTES
  Stream #0:1: Audio: aac (LC), 48000 Hz, stereo, fltp (default)
      Metadata:
        HANDLER_NAME    : SoundHandler
        VENDOR_ID       : [0][0][0][0]
        ENCODER         : Lavc61.19.100 aac
        BPS             : 193194
        DURATION        : 00:24:06.784000000
        NUMBER_OF_FRAMES: 67819
        NUMBER_OF_BYTES : 34938755
        _STATISTICS_WRITING_APP: mkvpropedit v94.0 ('Initiate') 64-bit
        _STATISTICS_WRITING_DATE_UTC: 2026-03-31 06:57:31
        _STATISTICS_TAGS: BPS DURATION NUMBER_OF_FRAMES NUMBER_OF_BYTES
Input #1, mov,mp4,m4a,3gp,3g2,mj2, from 'F:\Convert\files\[DC] Make Heroine ga Oosugiru - 07_Telegram.mp4':
  Metadata:
    major_brand     : isom
    minor_version   : 512
    compatible_brands: isomiso2avc1mp41
    encoder         : Lavf60.16.100
  Duration: 00:24:06.74, start: 0.000000, bitrate: 3764 kb/s
  Stream #1:0[0x1](und): Video: h264 (High) (avc1 / 0x31637661), yuv420p(tv, bt709, progressive), 1920x1080 [SAR 1:1 DAR 16:9], 3616 kb/s, 23.98 fps, 23.98 tbr, 24k tbn (default)
      Metadata:
        handler_name    : VideoHandler
        vendor_id       : [0][0][0][0]
        encoder         : Lavc60.31.102 h264_qsv
  Stream #1:1[0x2](und): Audio: aac (HE-AACv2) (mp4a / 0x6134706D), 48000 Hz, stereo, fltp, 144 kb/s (default)
      Metadata:
        handler_name    : SoundHandler
        vendor_id       : [0][0][0][0]
Stream mapping:
  Stream #0:0 (hevc) -> settb:default
  Stream #1:0 (h264) -> settb:default
  ssim:default -> Stream #0:0 (wrapped_avframe)
  Stream #0:1 -> #0:1 (aac (native) -> pcm_s16le (native))
Output #0, null, to 'pipe:':
  Metadata:
    COMPATIBLE_BRANDS: isomiso2avc1mp41
    MAJOR_BRAND     : isom
    MINOR_VERSION   : 512
    encoder         : Lavf61.7.100
  Stream #0:0: Video: wrapped_avframe, yuv420p10le(tv, bt709, progressive), 1920x1080 [SAR 1:1 DAR 16:9], q=2-31, 200 kb/s, 23.98 fps, 23.98 tbn
      Metadata:
        encoder         : Lavc61.19.100 wrapped_avframe
  Stream #0:1: Audio: pcm_s16le, 48000 Hz, stereo, s16, 1536 kb/s (default)
      Metadata:
        HANDLER_NAME    : SoundHandler
        VENDOR_ID       : [0][0][0][0]
        _STATISTICS_TAGS: BPS DURATION NUMBER_OF_FRAMES NUMBER_OF_BYTES
        BPS             : 193194
        DURATION        : 00:24:06.784000000
        NUMBER_OF_FRAMES: 67819
        NUMBER_OF_BYTES : 34938755
        _STATISTICS_WRITING_APP: mkvpropedit v94.0 ('Initiate') 64-bit
        _STATISTICS_WRITING_DATE_UTC: 2026-03-31 06:57:31
        encoder         : Lavc61.19.100 pcm_s16le
frame=  113 fps=0.0 q=-0.0 size=N/A time=00:00:04.71 bitrate=N/A speed=9.39x    frame=  306 fps=297 q=-0.0 size=N/A time=00:00:12.76 bitrate=N/A speed=12.4x    frame=  485 fps=315 q=-0.0 size=N/A time=00:00:20.22 bitrate=N/A speed=13.1x    frame=  673 fps=328 q=-0.0 size=N/A time=00:00:28.06 bitrate=N/A speed=13.7x    frame=  869 fps=339 q=-0.0 size=N/A time=00:00:36.24 bitrate=N/A speed=14.1x    frame= 1010 fps=327 q=-0.0 size=N/A time=00:00:42.12 bitrate=N/A speed=13.6x    frame= 1166 fps=324 q=-0.0 size=N/A time=00:00:48.63 bitrate=N/A speed=13.5x    frame= 1318 fps=320 q=-0.0 size=N/A time=00:00:54.97 bitrate=N/A speed=13.4x    frame= 1489 fps=321 q=-0.0 size=N/A time=00:01:02.10 bitrate=N/A speed=13.4x    frame= 1624 fps=315 q=-0.0 size=N/A time=00:01:07.73 bitrate=N/A speed=13.2x    frame= 1783 fps=315 q=-0.0 size=N/A time=00:01:14.36 bitrate=N/A speed=13.1x    frame= 1952 fps=315 q=-0.0 size=N/A time=00:01:21.41 bitrate=N/A speed=13.2x    frame= 2082 fps=311 q=-0.0 size=N/A time=00:01:26.83 bitrate=N/A speed=  13x    frame= 2222 fps=308 q=-0.0 size=N/A time=00:01:32.67 bitrate=N/A speed=12.9x    frame= 2375 fps=308 q=-0.0 size=N/A time=00:01:39.05 bitrate=N/A speed=12.8x    frame= 2515 fps=305 q=-0.0 size=N/A time=00:01:44.89 bitrate=N/A speed=12.7x    frame= 2672 fps=305 q=-0.0 size=N/A time=00:01:51.44 bitrate=N/A speed=12.7x    frame= 2847 fps=307 q=-0.0 size=N/A time=00:01:58.74 bitrate=N/A speed=12.8x    frame= 3024 fps=309 q=-0.0 size=N/A time=00:02:06.12 bitrate=N/A speed=12.9x    frame= 3214 fps=312 q=-0.0 size=N/A time=00:02:14.05 bitrate=N/A speed=  13x    frame= 3403 fps=315 q=-0.0 size=N/A time=00:02:21.93 bitrate=N/A speed=13.1x    frame= 3594 fps=317 q=-0.0 size=N/A time=00:02:29.89 bitrate=N/A speed=13.2x    frame= 3784 fps=319 q=-0.0 size=N/A time=00:02:37.82 bitrate=N/A speed=13.3x    frame= 3971 fps=321 q=-0.0 size=N/A time=00:02:45.62 bitrate=N/A speed=13.4x    frame= 4155 fps=323 q=-0.0 size=N/A time=00:02:53.29 bitrate=N/A speed=13.5x    frame= 4350 fps=325 q=-0.0 size=N/A time=00:03:01.43 bitrate=N/A speed=13.5x    frame= 4531 fps=326 q=-0.0 size=N/A time=00:03:08.98 bitrate=N/A speed=13.6x    frame= 4708 fps=326 q=-0.0 size=N/A time=00:03:16.36 bitrate=N/A speed=13.6x    frame= 4899 fps=328 q=-0.0 size=N/A time=00:03:24.32 bitrate=N/A speed=13.7x    frame= 5077 fps=328 q=-0.0 size=N/A time=00:03:31.75 bitrate=N/A speed=13.7x    frame= 5258 fps=329 q=-0.0 size=N/A time=00:03:39.30 bitrate=N/A speed=13.7x    frame= 5443 fps=330 q=-0.0 size=N/A time=00:03:47.01 bitrate=N/A speed=13.8x    frame= 5635 fps=331 q=-0.0 size=N/A time=00:03:55.02 bitrate=N/A speed=13.8x    frame= 5816 fps=332 q=-0.0 size=N/A time=00:04:02.57 bitrate=N/A speed=13.8x    frame= 6010 fps=333 q=-0.0 size=N/A time=00:04:10.66 bitrate=N/A speed=13.9x    frame= 6187 fps=333 q=-0.0 size=N/A time=00:04:18.04 bitrate=N/A speed=13.9x    frame= 6376 fps=334 q=-0.0 size=N/A time=00:04:25.93 bitrate=N/A speed=13.9x    frame= 6562 fps=335 q=-0.0 size=N/A time=00:04:33.69 bitrate=N/A speed=  14x    frame= 6748 fps=336 q=-0.0 size=N/A time=00:04:41.44 bitrate=N/A speed=  14x    frame= 6947 fps=337 q=-0.0 size=N/A time=00:04:49.74 bitrate=N/A speed=  14x    frame= 7132 fps=337 q=-0.0 size=N/A time=00:04:57.46 bitrate=N/A speed=14.1x    frame= 7317 fps=338 q=-0.0 size=N/A time=00:05:05.17 bitrate=N/A speed=14.1x    frame= 7498 fps=338 q=-0.0 size=N/A time=00:05:12.72 bitrate=N/A speed=14.1x    frame= 7680 fps=339 q=-0.0 size=N/A time=00:05:20.32 bitrate=N/A speed=14.1x    frame= 7870 fps=339 q=-0.0 size=N/A time=00:05:28.24 bitrate=N/A speed=14.1x    frame= 8054 fps=340 q=-0.0 size=N/A time=00:05:35.91 bitrate=N/A speed=14.2x    frame= 8245 fps=340 q=-0.0 size=N/A time=00:05:43.88 bitrate=N/A speed=14.2x    frame= 8430 fps=341 q=-0.0 size=N/A time=00:05:51.60 bitrate=N/A speed=14.2x    frame= 8616 fps=341 q=-0.0 size=N/A time=00:05:59.35 bitrate=N/A speed=14.2x    frame= 8805 fps=341 q=-0.0 size=N/A time=00:06:07.24 bitrate=N/A speed=14.2x    frame= 8995 fps=342 q=-0.0 size=N/A time=00:06:15.16 bitrate=N/A speed=14.3x    frame= 9173 fps=342 q=-0.0 size=N/A time=00:06:22.59 bitrate=N/A speed=14.3x    frame= 9365 fps=343 q=-0.0 size=N/A time=00:06:30.59 bitrate=N/A speed=14.3x    frame= 9555 fps=343 q=-0.0 size=N/A time=00:06:38.52 bitrate=N/A speed=14.3x    frame= 9744 fps=343 q=-0.0 size=N/A time=00:06:46.40 bitrate=N/A speed=14.3x    frame= 9925 fps=344 q=-0.0 size=N/A time=00:06:53.95 bitrate=N/A speed=14.3x    frame=10116 fps=344 q=-0.0 size=N/A time=00:07:01.92 bitrate=N/A speed=14.3x    frame=10293 fps=344 q=-0.0 size=N/A time=00:07:09.30 bitrate=N/A speed=14.3x    frame=10480 fps=344 q=-0.0 size=N/A time=00:07:17.10 bitrate=N/A speed=14.4x    frame=10657 fps=344 q=-0.0 size=N/A time=00:07:24.48 bitrate=N/A speed=14.4x    frame=10850 fps=345 q=-0.0 size=N/A time=00:07:32.53 bitrate=N/A speed=14.4x    frame=11037 fps=345 q=-0.0 size=N/A time=00:07:40.33 bitrate=N/A speed=14.4x    frame=11216 fps=345 q=-0.0 size=N/A time=00:07:47.80 bitrate=N/A speed=14.4x    frame=11407 fps=345 q=-0.0 size=N/A time=00:07:55.76 bitrate=N/A speed=14.4x    frame=11589 fps=346 q=-0.0 size=N/A time=00:08:03.35 bitrate=N/A speed=14.4x    frame=11773 fps=346 q=-0.0 size=N/A time=00:08:11.03 bitrate=N/A speed=14.4x    frame=11961 fps=346 q=-0.0 size=N/A time=00:08:18.87 bitrate=N/A speed=14.4x    frame=12150 fps=346 q=-0.0 size=N/A time=00:08:26.75 bitrate=N/A speed=14.4x    frame=12341 fps=347 q=-0.0 size=N/A time=00:08:34.72 bitrate=N/A speed=14.5x    frame=12521 fps=347 q=-0.0 size=N/A time=00:08:42.23 bitrate=N/A speed=14.5x    frame=12712 fps=347 q=-0.0 size=N/A time=00:08:50.19 bitrate=N/A speed=14.5x    frame=12905 fps=348 q=-0.0 size=N/A time=00:08:58.24 bitrate=N/A speed=14.5x    frame=13092 fps=348 q=-0.0 size=N/A time=00:09:06.04 bitrate=N/A speed=14.5x    frame=13277 fps=348 q=-0.0 size=N/A time=00:09:13.76 bitrate=N/A speed=14.5x    frame=13470 fps=348 q=-0.0 size=N/A time=00:09:21.81 bitrate=N/A speed=14.5x    frame=13656 fps=348 q=-0.0 size=N/A time=00:09:29.56 bitrate=N/A speed=14.5x    frame=13842 fps=349 q=-0.0 size=N/A time=00:09:37.32 bitrate=N/A speed=14.5x    frame=14027 fps=349 q=-0.0 size=N/A time=00:09:45.04 bitrate=N/A speed=14.5x    frame=14207 fps=349 q=-0.0 size=N/A time=00:09:52.55 bitrate=N/A speed=14.5x    frame=14392 fps=349 q=-0.0 size=N/A time=00:10:00.26 bitrate=N/A speed=14.5x    frame=14577 fps=349 q=-0.0 size=N/A time=00:10:07.98 bitrate=N/A speed=14.6x    frame=14757 fps=349 q=-0.0 size=N/A time=00:10:15.48 bitrate=N/A speed=14.6x    frame=14944 fps=349 q=-0.0 size=N/A time=00:10:23.28 bitrate=N/A speed=14.6x    frame=15123 fps=349 q=-0.0 size=N/A time=00:10:30.75 bitrate=N/A speed=14.6x    frame=15301 fps=349 q=-0.0 size=N/A time=00:10:38.17 bitrate=N/A speed=14.6x    frame=15484 fps=349 q=-0.0 size=N/A time=00:10:45.81 bitrate=N/A speed=14.6x    frame=15673 fps=349 q=-0.0 size=N/A time=00:10:53.69 bitrate=N/A speed=14.6x    frame=15866 fps=349 q=-0.0 size=N/A time=00:11:01.74 bitrate=N/A speed=14.6x    frame=16047 fps=349 q=-0.0 size=N/A time=00:11:09.29 bitrate=N/A speed=14.6x    frame=16236 fps=350 q=-0.0 size=N/A time=00:11:17.17 bitrate=N/A speed=14.6x    frame=16417 fps=350 q=-0.0 size=N/A time=00:11:24.72 bitrate=N/A speed=14.6x    frame=16610 fps=350 q=-0.0 size=N/A time=00:11:32.77 bitrate=N/A speed=14.6x    frame=16798 fps=350 q=-0.0 size=N/A time=00:11:40.61 bitrate=N/A speed=14.6x    frame=16976 fps=350 q=-0.0 size=N/A time=00:11:48.04 bitrate=N/A speed=14.6x    frame=17172 fps=350 q=-0.0 size=N/A time=00:11:56.21 bitrate=N/A speed=14.6x    frame=17357 fps=350 q=-0.0 size=N/A time=00:12:03.93 bitrate=N/A speed=14.6x    frame=17545 fps=351 q=-0.0 size=N/A time=00:12:11.77 bitrate=N/A speed=14.6x    frame=17725 fps=351 q=-0.0 size=N/A time=00:12:19.28 bitrate=N/A speed=14.6x    frame=17912 fps=351 q=-0.0 size=N/A time=00:12:27.07 bitrate=N/A speed=14.6x    frame=18097 fps=351 q=-0.0 size=N/A time=00:12:34.79 bitrate=N/A speed=14.6x    frame=18277 fps=351 q=-0.0 size=N/A time=00:12:42.30 bitrate=N/A speed=14.6x    frame=18453 fps=351 q=-0.0 size=N/A time=00:12:49.64 bitrate=N/A speed=14.6x    frame=18649 fps=351 q=-0.0 size=N/A time=00:12:57.81 bitrate=N/A speed=14.6x    frame=18835 fps=351 q=-0.0 size=N/A time=00:13:05.57 bitrate=N/A speed=14.6x    frame=19017 fps=351 q=-0.0 size=N/A time=00:13:13.16 bitrate=N/A speed=14.6x    frame=19204 fps=351 q=-0.0 size=N/A time=00:13:20.96 bitrate=N/A speed=14.7x    frame=19402 fps=351 q=-0.0 size=N/A time=00:13:29.22 bitrate=N/A speed=14.7x    frame=19586 fps=352 q=-0.0 size=N/A time=00:13:36.89 bitrate=N/A speed=14.7x    frame=19777 fps=352 q=-0.0 size=N/A time=00:13:44.86 bitrate=N/A speed=14.7x    frame=19964 fps=352 q=-0.0 size=N/A time=00:13:52.66 bitrate=N/A speed=14.7x    frame=20157 fps=352 q=-0.0 size=N/A time=00:14:00.71 bitrate=N/A speed=14.7x    frame=20338 fps=352 q=-0.0 size=N/A time=00:14:08.26 bitrate=N/A speed=14.7x    frame=20523 fps=352 q=-0.0 size=N/A time=00:14:15.98 bitrate=N/A speed=14.7x    frame=20701 fps=352 q=-0.0 size=N/A time=00:14:23.40 bitrate=N/A speed=14.7x    frame=20891 fps=352 q=-0.0 size=N/A time=00:14:31.32 bitrate=N/A speed=14.7x    frame=21085 fps=352 q=-0.0 size=N/A time=00:14:39.42 bitrate=N/A speed=14.7x    frame=21266 fps=352 q=-0.0 size=N/A time=00:14:46.96 bitrate=N/A speed=14.7x    frame=21443 fps=352 q=-0.0 size=N/A time=00:14:54.35 bitrate=N/A speed=14.7x    frame=21638 fps=352 q=-0.0 size=N/A time=00:15:02.48 bitrate=N/A speed=14.7x    frame=21826 fps=353 q=-0.0 size=N/A time=00:15:10.32 bitrate=N/A speed=14.7x    frame=22008 fps=353 q=-0.0 size=N/A time=00:15:17.91 bitrate=N/A speed=14.7x    frame=22199 fps=353 q=-0.0 size=N/A time=00:15:25.88 bitrate=N/A speed=14.7x    frame=22389 fps=353 q=-0.0 size=N/A time=00:15:33.80 bitrate=N/A speed=14.7x    frame=22574 fps=353 q=-0.0 size=N/A time=00:15:41.52 bitrate=N/A speed=14.7x    frame=22757 fps=353 q=-0.0 size=N/A time=00:15:49.15 bitrate=N/A speed=14.7x    frame=22943 fps=353 q=-0.0 size=N/A time=00:15:56.91 bitrate=N/A speed=14.7x    frame=23132 fps=353 q=-0.0 size=N/A time=00:16:04.79 bitrate=N/A speed=14.7x    frame=23310 fps=353 q=-0.0 size=N/A time=00:16:12.22 bitrate=N/A speed=14.7x    frame=23508 fps=353 q=-0.0 size=N/A time=00:16:20.47 bitrate=N/A speed=14.7x    frame=23696 fps=353 q=-0.0 size=N/A time=00:16:28.32 bitrate=N/A speed=14.7x    frame=23880 fps=353 q=-0.0 size=N/A time=00:16:35.99 bitrate=N/A speed=14.7x    frame=24070 fps=354 q=-0.0 size=N/A time=00:16:43.91 bitrate=N/A speed=14.7x    frame=24256 fps=354 q=-0.0 size=N/A time=00:16:51.67 bitrate=N/A speed=14.7x    frame=24451 fps=354 q=-0.0 size=N/A time=00:16:59.81 bitrate=N/A speed=14.8x    frame=24631 fps=354 q=-0.0 size=N/A time=00:17:07.31 bitrate=N/A speed=14.8x    frame=24822 fps=354 q=-0.0 size=N/A time=00:17:15.28 bitrate=N/A speed=14.8x    frame=25009 fps=354 q=-0.0 size=N/A time=00:17:23.08 bitrate=N/A speed=14.8x    frame=25191 fps=354 q=-0.0 size=N/A time=00:17:30.67 bitrate=N/A speed=14.8x    frame=25373 fps=354 q=-0.0 size=N/A time=00:17:38.26 bitrate=N/A speed=14.8x    frame=25568 fps=354 q=-0.0 size=N/A time=00:17:46.39 bitrate=N/A speed=14.8x    frame=25747 fps=354 q=-0.0 size=N/A time=00:17:53.86 bitrate=N/A speed=14.8x    frame=25933 fps=354 q=-0.0 size=N/A time=00:18:01.62 bitrate=N/A speed=14.8x    frame=26122 fps=354 q=-0.0 size=N/A time=00:18:09.50 bitrate=N/A speed=14.8x    frame=26304 fps=354 q=-0.0 size=N/A time=00:18:17.09 bitrate=N/A speed=14.8x    frame=26493 fps=354 q=-0.0 size=N/A time=00:18:24.97 bitrate=N/A speed=14.8x    frame=26685 fps=354 q=-0.0 size=N/A time=00:18:32.98 bitrate=N/A speed=14.8x    frame=26862 fps=354 q=-0.0 size=N/A time=00:18:40.36 bitrate=N/A speed=14.8x    frame=27037 fps=354 q=-0.0 size=N/A time=00:18:47.66 bitrate=N/A speed=14.8x    frame=27213 fps=354 q=-0.0 size=N/A time=00:18:55.00 bitrate=N/A speed=14.8x    frame=27378 fps=354 q=-0.0 size=N/A time=00:19:01.89 bitrate=N/A speed=14.8x    frame=27549 fps=354 q=-0.0 size=N/A time=00:19:09.02 bitrate=N/A speed=14.8x    frame=27725 fps=354 q=-0.0 size=N/A time=00:19:16.36 bitrate=N/A speed=14.8x    frame=27912 fps=354 q=-0.0 size=N/A time=00:19:24.16 bitrate=N/A speed=14.8x    frame=28097 fps=354 q=-0.0 size=N/A time=00:19:31.87 bitrate=N/A speed=14.8x    frame=28279 fps=354 q=-0.0 size=N/A time=00:19:39.46 bitrate=N/A speed=14.8x    frame=28471 fps=354 q=-0.0 size=N/A time=00:19:47.47 bitrate=N/A speed=14.8x    frame=28652 fps=354 q=-0.0 size=N/A time=00:19:55.02 bitrate=N/A speed=14.8x    frame=28828 fps=354 q=-0.0 size=N/A time=00:20:02.36 bitrate=N/A speed=14.8x    frame=28995 fps=354 q=-0.0 size=N/A time=00:20:09.33 bitrate=N/A speed=14.7x    frame=29177 fps=354 q=-0.0 size=N/A time=00:20:16.92 bitrate=N/A speed=14.7x    frame=29357 fps=354 q=-0.0 size=N/A time=00:20:24.43 bitrate=N/A speed=14.7x    frame=29529 fps=353 q=-0.0 size=N/A time=00:20:31.60 bitrate=N/A speed=14.7x    frame=29701 fps=353 q=-0.0 size=N/A time=00:20:38.77 bitrate=N/A speed=14.7x    frame=29887 fps=353 q=-0.0 size=N/A time=00:20:46.53 bitrate=N/A speed=14.7x    frame=30046 fps=353 q=-0.0 size=N/A time=00:20:53.16 bitrate=N/A speed=14.7x    frame=30234 fps=353 q=-0.0 size=N/A time=00:21:01.00 bitrate=N/A speed=14.7x    frame=30407 fps=353 q=-0.0 size=N/A time=00:21:08.22 bitrate=N/A speed=14.7x    frame=30594 fps=353 q=-0.0 size=N/A time=00:21:16.02 bitrate=N/A speed=14.7x    frame=30783 fps=353 q=-0.0 size=N/A time=00:21:23.90 bitrate=N/A speed=14.7x    frame=30961 fps=353 q=-0.0 size=N/A time=00:21:31.33 bitrate=N/A speed=14.7x    frame=31152 fps=353 q=-0.0 size=N/A time=00:21:39.29 bitrate=N/A speed=14.7x    frame=31330 fps=353 q=-0.0 size=N/A time=00:21:46.72 bitrate=N/A speed=14.7x    frame=31515 fps=353 q=-0.0 size=N/A time=00:21:54.43 bitrate=N/A speed=14.7x    frame=31696 fps=353 q=-0.0 size=N/A time=00:22:01.98 bitrate=N/A speed=14.7x    frame=31883 fps=353 q=-0.0 size=N/A time=00:22:09.78 bitrate=N/A speed=14.7x    frame=32060 fps=353 q=-0.0 size=N/A time=00:22:17.16 bitrate=N/A speed=14.7x    frame=32245 fps=353 q=-0.0 size=N/A time=00:22:24.88 bitrate=N/A speed=14.7x    frame=32430 fps=353 q=-0.0 size=N/A time=00:22:32.60 bitrate=N/A speed=14.7x    frame=32622 fps=353 q=-0.0 size=N/A time=00:22:40.60 bitrate=N/A speed=14.7x    frame=32773 fps=353 q=-0.0 size=N/A time=00:22:46.90 bitrate=N/A speed=14.7x    frame=32938 fps=353 q=-0.0 size=N/A time=00:22:53.78 bitrate=N/A speed=14.7x    frame=33111 fps=353 q=-0.0 size=N/A time=00:23:01.00 bitrate=N/A speed=14.7x    frame=33290 fps=353 q=-0.0 size=N/A time=00:23:08.47 bitrate=N/A speed=14.7x    frame=33468 fps=353 q=-0.0 size=N/A time=00:23:15.89 bitrate=N/A speed=14.7x    frame=33623 fps=352 q=-0.0 size=N/A time=00:23:22.35 bitrate=N/A speed=14.7x    frame=33769 fps=352 q=-0.0 size=N/A time=00:23:28.44 bitrate=N/A speed=14.7x    frame=33893 fps=351 q=-0.0 size=N/A time=00:23:33.62 bitrate=N/A speed=14.7x    frame=34062 fps=351 q=-0.0 size=N/A time=00:23:40.66 bitrate=N/A speed=14.7x    frame=34226 fps=351 q=-0.0 size=N/A time=00:23:47.50 bitrate=N/A speed=14.6x    frame=34371 fps=351 q=-0.0 size=N/A time=00:23:53.55 bitrate=N/A speed=14.6x    frame=34519 fps=350 q=-0.0 size=N/A time=00:23:59.72 bitrate=N/A speed=14.6x    [Parsed_ssim_16 @ 0000020753950a40] SSIM Y:0.993893 (22.141754) U:0.993956 (22.186419) V:0.993564 (21.913573) All:0.993849 (22.110227)
[out#0/null @ 0000020746c0dec0] video:14903KiB audio:271276KiB subtitle:0KiB other streams:0KiB global headers:0KiB muxing overhead: unknown
frame=34683 fps=350 q=-0.0 Lsize=N/A time=00:24:06.57 bitrate=N/A speed=14.6x    
